<?xml version="1.0" standalone="no"?>
<!DOCTYPE svg PUBLIC "-//W3C//DTD SVG 20010904//EN"
 "http://www.w3.org/TR/2001/REC-SVG-20010904/DTD/svg10.dtd">
<svg version="1.0" xmlns="http://www.w3.org/2000/svg"
 width="541.000000pt" height="426.000000pt" viewBox="0 0 541.000000 426.000000"
 preserveAspectRatio="xMidYMid meet">

<g transform="translate(0.000000,426.000000) scale(0.100000,-0.100000)"
fill="#000000" stroke="none">
<path d="M970 3727 c-44 -22 -45 -23 -45 -71 0 -30 5 -51 13 -53 7 -3 12 4 12
15 0 24 31 53 59 55 11 1 21 5 21 9 0 11 46 -35 52 -51 2 -9 12 -1 26 23 29
49 69 48 92 -1 17 -37 36 -38 32 -2 -9 78 -12 86 -35 83 -12 -2 -59 -5 -104
-7 -64 -1 -79 1 -71 11 15 17 0 14 -52 -11z"/>
<path d="M4623 3727 c-36 -18 -43 -26 -43 -51 0 -17 -3 -41 -6 -53 -5 -17 -2
-23 10 -23 9 0 16 8 16 18 0 28 22 49 56 56 24 5 36 2 56 -17 l26 -24 22 29
c17 23 28 29 52 26 25 -2 34 -10 42 -34 11 -32 37 -37 30 -6 -1 9 -5 33 -8 52
-6 34 -8 35 -44 33 -142 -10 -171 -9 -160 4 15 18 0 15 -49 -10z"/>
<path d="M816 3688 c-3 -13 -6 -36 -6 -51 0 -22 4 -28 18 -25 13 3 17 13 17
47 0 48 -19 66 -29 29z"/>
<path d="M4464 3683 c-13 -39 -6 -75 14 -71 22 4 31 98 10 98 -8 0 -18 -12
-24 -27z"/>
<path d="M1155 3539 c-4 -6 -5 -12 -2 -15 2 -3 7 2 10 11 7 17 1 20 -8 4z"/>
<path d="M801 3484 c0 -11 3 -14 6 -6 3 7 2 16 -1 19 -3 4 -6 -2 -5 -13z"/>
<path d="M4451 3484 c0 -11 3 -14 6 -6 3 7 2 16 -1 19 -3 4 -6 -2 -5 -13z"/>
<path d="M1072 3435 c-7 -8 -28 -14 -47 -13 -19 1 -38 -1 -41 -4 -3 -4 -19 -2
-35 2 -25 7 -29 6 -29 -11 0 -20 11 -22 119 -22 46 1 177 31 168 39 -1 2 -28
-1 -60 -5 -53 -7 -57 -6 -51 11 6 21 -6 23 -24 3z"/>
<path d="M4723 3436 c-8 -9 -34 -13 -82 -12 -61 2 -71 0 -71 -15 0 -23 61 -28
167 -14 94 13 119 25 50 25 -37 0 -45 3 -41 15 7 18 -7 19 -23 1z"/>
<path d="M1269 3413 c-1 -5 -1 -12 0 -16 1 -5 -3 -6 -8 -3 -5 4 -13 0 -18 -7
-4 -7 -16 -16 -26 -20 -12 -5 -16 -3 -11 5 5 8 0 9 -17 5 -13 -4 -65 -7 -116
-7 -71 0 -95 -4 -108 -16 -11 -11 -25 -14 -47 -10 -24 5 -28 3 -20 -7 5 -6 10
-25 10 -40 -1 -46 12 -51 140 -51 120 1 193 17 235 52 23 20 25 122 2 122 -8
0 -16 -3 -16 -7z"/>
<path d="M4906 3405 c-11 -8 -16 -15 -10 -15 11 -1 -26 -30 -39 -30 -4 0 -5 5
-2 10 8 13 -18 8 -27 -5 -5 -7 -8 -7 -8 0 0 16 -192 6 -211 -11 -10 -9 -28
-12 -50 -8 -27 4 -30 3 -17 -5 10 -7 16 -23 16 -42 -1 -17 5 -35 13 -40 8 -6
72 -9 144 -7 114 3 136 6 180 28 l50 25 3 58 c3 61 -5 70 -42 42z"/>
<path d="M777 3373 c-5 -10 -2 -43 7 -64 6 -14 -4 -16 -76 -18 -57 -1 -87 -6
-97 -16 -8 -8 -13 -17 -10 -19 2 -3 44 -6 92 -7 82 -2 89 0 117 25 25 22 29
31 23 54 -9 36 -45 65 -56 45z"/>
<path d="M4427 3353 c-6 -34 0 -51 25 -64 16 -8 23 -8 29 2 11 18 0 61 -20 76
-23 18 -28 16 -34 -14z"/>
<path d="M1483 3292 c-50 -2 -65 -7 -73 -22 -10 -19 -7 -20 83 -20 91 0 117 8
117 35 0 12 -15 12 -127 7z"/>
<path d="M1815 3275 l-20 -20 94 -3 c92 -3 121 5 121 32 0 8 -27 12 -87 11
-74 0 -91 -3 -108 -20z"/>
<path d="M2214 3276 c-14 -21 -13 -21 78 -24 71 -2 95 1 107 12 23 24 7 30
-85 31 -76 1 -87 -1 -100 -19z"/>
<path d="M2616 3276 l-21 -21 94 -3 c91 -3 121 5 121 32 0 7 -30 11 -87 12
-75 1 -89 -2 -107 -20z"/>
<path d="M3016 3275 l-16 -25 93 0 c92 0 117 8 117 37 0 10 -23 13 -89 13 -84
0 -90 -1 -105 -25z"/>
<path d="M3415 3280 c-8 -9 -15 -20 -15 -23 0 -4 42 -7 94 -7 73 0 96 3 107
16 20 24 -5 33 -93 32 -59 -1 -81 -5 -93 -18z"/>
<path d="M3816 3276 l-21 -21 94 -3 c93 -3 121 5 121 33 0 9 -23 13 -87 12
-74 -1 -90 -4 -107 -21z"/>
<path d="M4217 3282 c-10 -10 -17 -22 -17 -25 0 -13 185 -8 198 5 30 30 13 38
-76 38 -73 0 -92 -3 -105 -18z"/>
<path d="M5017 3282 c-10 -10 -17 -22 -17 -25 0 -14 184 -7 204 8 32 25 8 35
-83 35 -72 0 -91 -3 -104 -18z"/>
<path d="M5060 3210 l-95 -5 -107 -150 c-59 -82 -108 -153 -108 -157 0 -5 42
-8 94 -8 l94 0 98 141 c55 77 105 150 113 160 8 11 12 21 10 22 -2 1 -47 0
-99 -3z"/>
<path d="M541 3171 c-31 -39 -31 -40 -31 -160 0 -96 3 -121 14 -121 11 0 226
298 226 314 0 3 -40 6 -89 6 l-89 0 -31 -39z"/>
<path d="M932 3158 c-137 -190 -182 -254 -182 -260 0 -5 42 -8 94 -8 l93 0 95
138 c52 75 100 147 107 160 l12 22 -91 0 -90 0 -38 -52z"/>
<path d="M1332 3158 c-88 -120 -182 -256 -182 -262 0 -3 42 -6 94 -6 l94 0
106 154 c58 85 106 157 106 160 0 3 -40 6 -90 6 l-89 0 -39 -52z"/>
<path d="M1663 3060 c-59 -83 -109 -155 -111 -160 -2 -6 34 -10 90 -10 l94 0
24 33 c42 56 190 276 190 281 0 3 -40 6 -89 6 l-90 0 -108 -150z"/>
<path d="M2132 3158 c-88 -120 -182 -256 -182 -262 0 -3 42 -6 94 -6 l94 0
106 154 c58 85 106 157 106 160 0 3 -40 6 -90 6 l-89 0 -39 -52z"/>
<path d="M2483 3088 c-118 -163 -133 -185 -133 -192 0 -3 42 -6 93 -6 l93 0
25 33 c26 35 37 51 127 183 34 50 62 94 62 98 0 3 -40 6 -89 6 l-90 0 -88
-122z"/>
<path d="M2861 3056 c-61 -85 -111 -157 -111 -160 0 -3 42 -6 94 -6 l94 0 35
48 c56 77 177 259 177 266 0 3 -40 6 -89 6 l-90 0 -110 -154z"/>
<path d="M3332 3158 c-88 -120 -182 -256 -182 -262 0 -3 42 -6 93 -6 l93 0 45
63 c66 91 169 245 169 251 0 3 -40 6 -90 6 l-89 0 -39 -52z"/>
<path d="M3663 3060 c-59 -83 -110 -155 -111 -161 -3 -6 31 -9 94 -7 l98 3
103 150 c57 83 103 153 103 158 0 4 -40 7 -89 7 l-90 0 -108 -150z"/>
<path d="M4063 3060 c-59 -83 -110 -155 -111 -161 -3 -6 31 -9 94 -7 l99 3 88
130 c48 72 94 142 103 158 l15 27 -90 0 -90 0 -108 -150z"/>
<path d="M4532 3158 c-84 -113 -182 -253 -182 -260 0 -5 42 -8 94 -8 l93 0 95
138 c52 75 100 147 107 160 l12 22 -90 0 -90 0 -39 -52z"/>
<path d="M5175 2940 c-14 -22 -25 -42 -25 -45 0 -3 16 -5 35 -5 35 0 35 0 35
45 0 25 -4 45 -10 45 -5 0 -21 -18 -35 -40z"/>
<path d="M4915 2643 c-44 -7 -242 -35 -440 -63 -198 -28 -643 -91 -990 -140
-346 -49 -889 -125 -1205 -170 -316 -44 -605 -85 -641 -90 -110 -16 -489 -69
-745 -105 -133 -18 -254 -39 -269 -46 -57 -28 -67 -54 -67 -185 0 -116 23
-309 41 -343 34 -62 80 -69 273 -42 84 12 394 55 688 97 817 114 2871 403
3125 439 55 8 170 24 255 35 188 26 212 35 240 91 l22 42 -22 151 c-13 92 -29
166 -41 189 -10 21 -19 46 -19 57 0 30 -51 80 -90 89 -20 4 -69 2 -115 -6z
m122 -33 c17 -10 37 -29 43 -40 7 -12 22 -99 35 -193 20 -149 21 -176 10 -204
-19 -46 -62 -68 -158 -82 -45 -6 -161 -23 -257 -36 -284 -39 -2056 -289 -2560
-360 -256 -37 -528 -75 -605 -85 -77 -11 -283 -40 -458 -65 -351 -50 -355 -50
-391 -33 -45 20 -57 53 -83 233 -22 157 -23 176 -9 208 24 59 69 78 219 92 72
7 258 34 266 39 3 2 56 9 116 15 61 7 238 30 395 52 506 71 1262 178 1795 255
442 63 832 117 1015 140 25 3 61 9 80 14 19 5 127 21 240 35 112 14 207 28
209 31 11 11 69 2 98 -16z"/>
<path d="M4903 2598 c-11 -15 -183 -501 -183 -518 0 -5 8 -10 18 -9 25 0 162
25 166 30 7 8 158 470 155 473 -50 37 -136 50 -156 24z"/>
<path d="M4598 2566 c-43 -7 -79 -14 -81 -17 -2 -2 -37 -98 -77 -214 -40 -115
-81 -232 -92 -259 -10 -27 -16 -51 -13 -54 10 -10 167 16 180 29 13 14 175
494 175 517 0 6 -3 11 -7 11 -5 -1 -43 -7 -85 -13z"/>
<path d="M4256 2373 l-38 -4 6 -71 c10 -100 10 -100 65 -93 62 9 71 12 71 28
0 11 -10 12 -44 7 -38 -6 -45 -4 -50 12 -5 20 -1 22 47 32 43 10 34 32 -12 28
-28 -3 -40 0 -44 12 -5 11 4 16 39 22 28 4 44 11 44 20 0 14 -7 15 -84 7z"/>
<path d="M4670 2360 c0 -5 7 -10 16 -10 8 0 12 5 9 10 -3 6 -10 10 -16 10 -5
0 -9 -4 -9 -10z"/>
<path d="M4162 2347 c-6 -7 -16 -26 -23 -42 l-12 -30 -6 30 c-4 18 -13 31 -25
33 -19 4 -19 -10 1 -125 8 -47 33 -43 33 5 l1 37 28 -32 c15 -18 35 -33 44
-33 23 0 22 6 -11 49 -29 38 -32 78 -6 88 18 7 18 33 0 33 -7 0 -18 -6 -24
-13z"/>
<path d="M3983 2328 c-37 -7 -53 -14 -53 -25 0 -11 6 -14 24 -9 24 6 25 4 32
-53 7 -66 16 -87 34 -76 11 7 8 68 -6 117 -4 12 2 19 20 24 14 3 26 12 26 20
0 16 -3 16 -77 2z"/>
<path d="M3793 2295 c-27 -19 -37 -59 -23 -101 13 -37 35 -54 74 -54 38 0 55
10 72 41 40 79 -51 164 -123 114z m81 -31 c19 -18 21 -65 4 -82 -18 -18 -56
-14 -68 7 -32 61 19 121 64 75z"/>
<path d="M3670 2283 c-74 -11 -73 -10 -66 -61 4 -26 10 -62 13 -81 l6 -33 51
7 c61 8 76 19 76 56 0 36 -30 53 -76 44 -29 -5 -34 -3 -34 13 0 15 9 21 40 26
26 4 40 11 40 21 0 15 -4 16 -50 8z m46 -104 c8 -14 -5 -26 -38 -34 -24 -6
-28 -4 -28 13 0 29 51 45 66 21z"/>
<path d="M4680 2280 c0 -5 7 -10 15 -10 8 0 15 5 15 10 0 6 -7 10 -15 10 -8 0
-15 -4 -15 -10z"/>
<path d="M3476 2243 c-13 -45 -36 -156 -33 -160 9 -8 35 10 40 28 6 24 65 27
73 4 6 -14 44 -22 44 -9 0 4 -19 40 -42 80 -42 74 -71 94 -82 57z m54 -75 c0
-5 -9 -8 -21 -8 -15 0 -19 4 -15 16 3 9 6 21 6 27 0 12 29 -23 30 -35z"/>
<path d="M3312 2233 c-32 -4 -34 -6 -28 -36 3 -18 8 -56 12 -85 5 -41 10 -52
23 -50 12 3 15 12 13 36 -3 26 0 32 15 32 33 0 63 29 63 60 0 29 -24 52 -52
48 -7 0 -28 -3 -46 -5z m57 -32 c21 -13 5 -41 -24 -41 -38 0 -33 44 5 49 3 0
11 -3 19 -8z"/>
<path d="M3156 2199 c-19 -15 -24 -25 -17 -32 7 -7 17 -5 30 7 20 18 51 16 51
-2 0 -5 -7 -15 -15 -22 -20 -17 -19 -27 5 -33 11 -3 20 -12 20 -20 0 -20 -29
-30 -46 -16 -7 6 -18 8 -24 4 -35 -21 23 -50 70 -34 35 13 50 50 29 75 -8 9
-12 29 -11 45 2 19 -3 31 -17 38 -29 16 -45 14 -75 -10z"/>
<path d="M3016 2173 c-6 -20 -36 -152 -36 -158 0 -2 9 -1 20 2 11 3 20 13 20
23 0 27 59 33 80 9 8 -11 20 -16 27 -11 18 11 -63 152 -87 152 -10 0 -21 -8
-24 -17z m54 -75 c0 -4 -9 -8 -21 -8 -15 0 -19 4 -15 16 3 9 6 21 6 27 1 13
30 -22 30 -35z"/>
<path d="M2842 2163 c-19 -4 -23 -9 -18 -27 3 -12 8 -48 12 -79 6 -48 10 -57
27 -57 16 0 19 5 14 29 -6 26 -3 30 22 36 16 3 37 15 47 26 17 19 17 23 3 47
-15 28 -52 36 -107 25z m75 -39 c6 -16 -11 -34 -33 -34 -14 0 -26 28 -18 41 9
15 44 10 51 -7z"/>
<path d="M2626 2133 l-28 -5 6 -70 c10 -97 10 -97 59 -91 75 9 111 51 72 83
-9 8 -13 21 -9 36 12 46 -16 59 -100 47z m69 -43 c0 -8 -11 -17 -24 -18 -27
-4 -47 18 -28 30 19 13 52 5 52 -12z m13 -67 c-4 -22 -47 -30 -59 -11 -15 23
-10 28 27 28 28 0 35 -3 32 -17z"/>
<path d="M2397 2025 c-10 -41 -17 -80 -17 -85 0 -18 29 -10 35 9 8 27 62 33
79 9 8 -11 20 -16 29 -12 13 5 8 18 -27 77 -27 47 -49 73 -62 75 -18 3 -23 -6
-37 -73z m57 9 c10 -25 7 -34 -9 -34 -9 0 -15 9 -15 25 0 28 15 34 24 9z"/>
<path d="M1188 2084 c-2 -1 -30 -5 -63 -9 -33 -4 -63 -10 -66 -13 -3 -4 -41
-108 -84 -232 -43 -124 -84 -240 -91 -259 -8 -19 -12 -36 -10 -39 8 -7 176 19
182 29 6 10 173 495 177 514 2 8 -38 17 -45 9z"/>
<path d="M2308 2083 c-1 -5 -2 -37 -3 -73 0 -63 -1 -65 -27 -68 -26 -3 -26 -1
-33 62 -6 57 -10 66 -27 66 -17 0 -19 -5 -15 -32 3 -18 9 -55 13 -82 l7 -49
58 7 c48 5 59 3 59 -9 0 -8 7 -15 15 -15 10 0 15 10 15 30 0 17 -4 30 -9 30
-5 0 -12 19 -16 43 -12 78 -17 97 -26 97 -5 0 -10 -3 -11 -7z"/>
<path d="M2115 2013 c-25 -69 -31 -71 -39 -13 -5 34 -11 50 -19 47 -13 -4 -14
-45 -3 -119 10 -66 31 -62 64 10 l26 57 9 -52 c6 -40 12 -51 24 -46 15 6 14
26 -4 131 -8 50 -36 42 -58 -15z"/>
<path d="M800 2030 c-19 -4 -56 -11 -81 -14 l-47 -7 -31 -88 -32 -88 20 -120
c19 -120 33 -163 51 -163 6 0 10 1 10 3 0 1 36 107 80 236 44 128 80 237 80
242 0 10 -1 10 -50 -1z"/>
<path d="M1981 2030 c-9 -5 -11 -17 -7 -33 5 -21 2 -26 -20 -31 -32 -8 -44 -1
-44 30 0 18 -5 24 -21 24 -13 0 -19 -5 -16 -13 3 -8 8 -44 12 -80 6 -58 10
-67 27 -67 18 0 19 5 14 34 -6 30 -4 34 20 40 30 8 44 -5 44 -41 0 -17 6 -23
21 -23 13 0 19 5 16 13 -3 8 -8 44 -12 80 -8 71 -13 81 -34 67z"/>
<path d="M1764 2002 c-10 -7 -44 -126 -44 -157 0 -23 24 -18 35 8 13 28 61 36
79 12 7 -10 20 -16 29 -14 14 3 9 17 -29 82 -47 78 -51 82 -70 69z m30 -68 c9
-22 8 -24 -9 -24 -8 0 -15 9 -15 20 0 24 15 27 24 4z"/>
<path d="M1605 1981 c-38 -6 -40 -8 -39 -41 2 -73 15 -130 30 -130 9 0 14 11
14 35 0 30 3 35 23 35 31 0 60 32 55 61 -4 31 -36 46 -83 40z m45 -51 c0 -15
-7 -20 -25 -20 -18 0 -25 5 -25 20 0 15 7 20 25 20 18 0 25 -5 25 -20z"/>
<path d="M1480 1963 c-56 -9 -70 -14 -70 -28 0 -11 7 -14 24 -9 23 5 24 3 33
-58 6 -49 12 -64 27 -66 16 -4 17 1 11 45 -12 87 -11 88 13 91 12 2 22 10 22
18 0 14 -11 15 -60 7z"/>
<path d="M1280 1920 c-29 -29 -27 -94 5 -125 13 -14 35 -25 47 -25 32 0 68 27
68 51 0 25 -22 25 -38 -1 -16 -27 -38 -25 -58 4 -31 49 3 105 47 78 27 -17 49
-1 29 23 -18 22 -76 19 -100 -5z"/>
<path d="M927 1192 c-10 -10 -17 -22 -17 -25 0 -13 155 -8 168 5 29 29 13 38
-61 38 -59 0 -77 -4 -90 -18z"/>
<path d="M1272 1198 c-29 -29 -13 -38 68 -38 67 0 81 3 89 19 6 10 7 21 4 25
-12 11 -149 6 -161 -6z"/>
<path d="M1617 1192 c-10 -10 -17 -22 -17 -25 0 -4 35 -7 78 -7 64 0 82 4 95
18 10 10 14 22 10 25 -3 4 -39 7 -78 7 -57 0 -75 -4 -88 -18z"/>
<path d="M1960 1191 c-5 -11 -10 -22 -10 -25 0 -12 156 -6 168 6 29 29 13 38
-68 38 -68 0 -81 -3 -90 -19z"/>
<path d="M2307 1192 c-10 -10 -14 -22 -10 -25 3 -4 39 -7 78 -7 57 0 75 4 88
18 10 10 14 22 10 25 -3 4 -39 7 -78 7 -57 0 -75 -4 -88 -18z"/>
<path d="M2650 1191 c-5 -11 -10 -22 -10 -25 0 -12 156 -6 168 6 29 29 13 38
-68 38 -68 0 -81 -3 -90 -19z"/>
<path d="M2997 1192 c-10 -10 -17 -22 -17 -25 0 -4 35 -7 78 -7 64 0 82 4 95
18 10 10 14 22 10 25 -3 4 -39 7 -78 7 -57 0 -75 -4 -88 -18z"/>
<path d="M3342 1198 c-28 -28 -13 -38 59 -38 74 0 109 11 109 35 0 12 -16 15
-78 15 -47 0 -83 -5 -90 -12z"/>
<path d="M3687 1192 c-10 -10 -17 -22 -17 -25 0 -4 35 -7 78 -7 64 0 82 4 95
18 10 10 14 22 10 25 -3 4 -39 7 -78 7 -57 0 -75 -4 -88 -18z"/>
<path d="M4036 1194 c-28 -28 -17 -34 64 -34 68 0 81 3 90 19 5 11 10 22 10
25 0 3 -33 6 -74 6 -54 0 -79 -4 -90 -16z"/>
<path d="M4377 1192 c-10 -10 -14 -22 -10 -25 12 -12 148 -8 161 5 29 29 13
38 -61 38 -59 0 -77 -4 -90 -18z"/>
<path d="M4722 1198 c-28 -28 -13 -38 59 -38 74 0 109 11 109 35 0 12 -16 15
-78 15 -47 0 -83 -5 -90 -12z"/>
<path d="M863 1100 c-33 -35 -33 -36 -33 -138 0 -93 2 -103 18 -100 15 3 95
109 170 228 l29 46 -76 -1 c-74 0 -77 -1 -108 -35z"/>
<path d="M1221 1115 c-35 -38 -181 -248 -177 -254 4 -5 71 -6 147 -2 15 1 150
185 184 250 l13 26 -75 0 c-61 0 -77 -3 -92 -20z"/>
<path d="M1559 1105 c-39 -46 -169 -231 -169 -241 0 -5 37 -7 82 -4 l83 5 87
125 c48 69 87 128 88 132 0 3 -33 8 -73 10 -70 3 -73 2 -98 -27z"/>
<path d="M1918 1120 c-10 -8 -56 -69 -102 -135 l-85 -120 62 -5 c34 -3 72 -4
84 -2 15 3 50 45 108 129 48 69 89 131 91 137 7 18 -136 15 -158 -4z"/>
<path d="M2290 1132 c-8 -3 -23 -12 -33 -21 -27 -23 -180 -241 -174 -247 11
-11 147 -7 161 5 23 19 178 252 172 258 -7 7 -107 11 -126 5z"/>
<path d="M2630 1130 c-22 -5 -130 -140 -189 -237 l-20 -33 83 0 83 0 87 125
c47 69 87 130 89 137 2 12 -91 18 -133 8z"/>
<path d="M3033 1132 c-72 -3 -73 -3 -106 -45 -50 -62 -157 -213 -157 -220 0
-4 37 -7 83 -7 l82 1 88 130 c49 71 87 133 85 137 -2 4 -35 6 -75 4z"/>
<path d="M3320 1130 c-16 -4 -49 -39 -97 -105 -79 -109 -113 -161 -108 -167 2
-1 39 -2 83 0 l80 3 86 124 c48 69 89 130 91 138 4 9 -9 13 -52 13 -32 0 -69
-3 -83 -6z"/>
<path d="M3554 1004 c-52 -72 -94 -134 -94 -138 0 -3 35 -6 78 -6 63 0 82 4
94 18 25 27 168 242 168 251 0 4 -34 7 -76 7 l-76 -1 -94 -131z"/>
<path d="M3981 1115 c-17 -19 -158 -215 -175 -242 -5 -10 12 -13 77 -13 l84 0
87 126 c48 70 90 132 92 138 3 7 -19 11 -71 11 -64 0 -79 -3 -94 -20z"/>
<path d="M4371 1130 c-40 -5 -47 -10 -85 -65 -23 -33 -63 -90 -89 -126 -26
-37 -47 -69 -47 -73 0 -3 36 -6 79 -6 l79 0 35 48 c62 86 147 213 147 221 0 8
-53 9 -119 1z"/>
<path d="M4672 1116 c-25 -28 -182 -244 -182 -251 0 -3 38 -5 84 -5 l83 0 80
118 c117 172 115 157 27 158 -62 1 -77 -3 -92 -20z"/>
<path d="M4857 901 c-22 -38 -22 -41 8 -41 22 0 25 4 25 35 0 43 -10 44 -33 6z"/>
</g>
</svg>
